<svg width="128" height="128" viewBox="0 0 128 128" fill="none" xmlns="http://www.w3.org/2000/svg">
<g clip-path="url(#clip0_764_5763)">
<rect width="128" height="128" fill="#223737"/>
<path d="M28.2614 86V39.4545H43.9886C47.625 39.4545 50.6098 40.0758 52.9432 41.3182C55.2765 42.5455 57.0038 44.2348 58.125 46.3864C59.2462 48.5379 59.8068 50.9848 59.8068 53.7273C59.8068 56.4697 59.2462 58.9015 58.125 61.0227C57.0038 63.1439 55.2841 64.8106 52.9659 66.0227C50.6477 67.2197 47.6856 67.8182 44.0795 67.8182H31.3523V62.7273H43.8977C46.3826 62.7273 48.3826 62.3636 49.8977 61.6364C51.428 60.9091 52.5341 59.8788 53.2159 58.5455C53.9129 57.197 54.2614 55.5909 54.2614 53.7273C54.2614 51.8636 53.9129 50.2348 53.2159 48.8409C52.5189 47.447 51.4053 46.3712 49.875 45.6136C48.3447 44.8409 46.322 44.4545 43.8068 44.4545H33.8977V86H28.2614ZM50.1705 65.0909L61.625 86H55.0795L43.8068 65.0909H50.1705ZM94.6534 51.0909C94.3807 48.7879 93.2746 47 91.3352 45.7273C89.3958 44.4545 87.017 43.8182 84.1989 43.8182C82.1383 43.8182 80.3352 44.1515 78.7898 44.8182C77.2595 45.4848 76.0625 46.4015 75.1989 47.5682C74.3504 48.7348 73.9261 50.0606 73.9261 51.5455C73.9261 52.7879 74.2216 53.8561 74.8125 54.75C75.4186 55.6288 76.1913 56.3636 77.1307 56.9545C78.0701 57.5303 79.0549 58.0076 80.0852 58.3864C81.1155 58.75 82.0625 59.0455 82.9261 59.2727L87.6534 60.5455C88.8655 60.8636 90.214 61.303 91.6989 61.8636C93.1989 62.4242 94.6307 63.1894 95.9943 64.1591C97.3731 65.1136 98.5095 66.3409 99.4034 67.8409C100.297 69.3409 100.744 71.1818 100.744 73.3636C100.744 75.8788 100.085 78.1515 98.767 80.1818C97.464 82.2121 95.5549 83.8258 93.0398 85.0227C90.5398 86.2197 87.5019 86.8182 83.9261 86.8182C80.5928 86.8182 77.7064 86.2803 75.267 85.2045C72.8428 84.1288 70.9337 82.6288 69.5398 80.7045C68.161 78.7803 67.3807 76.5455 67.1989 74H73.017C73.1686 75.7576 73.7595 77.2121 74.7898 78.3636C75.8352 79.5 77.1534 80.3485 78.7443 80.9091C80.3504 81.4545 82.0777 81.7273 83.9261 81.7273C86.0777 81.7273 88.0095 81.3788 89.7216 80.6818C91.4337 79.9697 92.7898 78.9848 93.7898 77.7273C94.7898 76.4545 95.2898 74.9697 95.2898 73.2727C95.2898 71.7273 94.858 70.4697 93.9943 69.5C93.1307 68.5303 91.9943 67.7424 90.5852 67.1364C89.1761 66.5303 87.6534 66 86.017 65.5455L80.2898 63.9091C76.6534 62.8636 73.7746 61.3712 71.6534 59.4318C69.5322 57.4924 68.4716 54.9545 68.4716 51.8182C68.4716 49.2121 69.1761 46.9394 70.5852 45C72.0095 43.0455 73.9186 41.5303 76.3125 40.4545C78.7216 39.3636 81.411 38.8182 84.3807 38.8182C87.3807 38.8182 90.0473 39.3561 92.3807 40.4318C94.714 41.4924 96.5625 42.947 97.9261 44.7955C99.3049 46.6439 100.032 48.7424 100.108 51.0909H94.6534Z" fill="white"/>
</g>
<defs>
<clipPath id="clip0_764_5763">
<rect width="128" height="128" fill="white"/>
</clipPath>
</defs>
</svg>
